<mxfile host="Electron" modified="2024-04-01T13:47:14.343Z" agent="Mozilla/5.0 (Windows NT 10.0; Win64; x64) AppleWebKit/537.36 (KHTML, like Gecko) draw.io/24.1.0 Chrome/120.0.6099.109 Electron/28.1.0 Safari/537.36" etag="v6WVoNfhWc9a60HPQbqJ" version="24.1.0" type="device">
  <diagram name="PÃ¡gina-1" id="E-DP9fMv0TR5NF7smadX">
    <mxGraphModel dx="1041" dy="725" grid="1" gridSize="6" guides="1" tooltips="1" connect="1" arrows="1" fold="1" page="1" pageScale="1" pageWidth="800" pageHeight="550" math="1" shadow="0">
      <root>
        <mxCell id="0" />
        <mxCell id="1" parent="0" />
        <mxCell id="3qVgdPwwvXnHS_knHwvc-2" value="" style="rounded=0;whiteSpace=wrap;html=1;fillColor=#CCCCCC;strokeWidth=3;" vertex="1" parent="1">
          <mxGeometry x="24" y="24" width="720" height="510" as="geometry" />
        </mxCell>
        <mxCell id="3qVgdPwwvXnHS_knHwvc-3" value="\(\Omega\)" style="text;html=1;align=center;verticalAlign=middle;whiteSpace=wrap;rounded=0;fontSize=30;" vertex="1" parent="1">
          <mxGeometry x="740" y="24" width="60" height="30" as="geometry" />
        </mxCell>
        <mxCell id="3qVgdPwwvXnHS_knHwvc-4" value="" style="ellipse;whiteSpace=wrap;html=1;fillColor=none;strokeWidth=3;shadow=0;" vertex="1" parent="1">
          <mxGeometry x="90" y="96" width="354" height="270" as="geometry" />
        </mxCell>
        <mxCell id="3qVgdPwwvXnHS_knHwvc-5" value="\(A\)" style="text;html=1;align=center;verticalAlign=middle;whiteSpace=wrap;rounded=0;fontSize=30;" vertex="1" parent="1">
          <mxGeometry x="86" y="90" width="60" height="30" as="geometry" />
        </mxCell>
        <mxCell id="3qVgdPwwvXnHS_knHwvc-6" value="" style="ellipse;whiteSpace=wrap;html=1;rotation=15;gradientColor=none;fillColor=none;strokeWidth=3;shadow=0;" vertex="1" parent="1">
          <mxGeometry x="312" y="162" width="354" height="270" as="geometry" />
        </mxCell>
        <mxCell id="3qVgdPwwvXnHS_knHwvc-8" value="\(B\)" style="text;html=1;align=center;verticalAlign=middle;whiteSpace=wrap;rounded=0;fontSize=30;" vertex="1" parent="1">
          <mxGeometry x="614" y="180" width="60" height="30" as="geometry" />
        </mxCell>
      </root>
    </mxGraphModel>
  </diagram>
</mxfile>
